<svg width="32" height="32" viewBox="0 0 32 32" fill="none" xmlns="http://www.w3.org/2000/svg">
  <rect width="32" height="32" rx="6" fill="#1A1C24"/>
  
  <path d="M4 24L10 18L16 22L22 12L28 15V28H4V24Z" fill="#22C55E" fill-opacity="0.1"/>
  <path d="M4 24L10 18L16 22L22 12L28 15" stroke="#22C55E" stroke-width="1.5" stroke-linecap="round" stroke-linejoin="round"/>
  
  <rect x="11" y="8" width="8" height="12" rx="1.5" transform="rotate(-10 11 8)" fill="#2563EB"/>
  <rect x="12.5" y="10" width="3" height="1" rx="0.5" transform="rotate(-10 12.5 10)" fill="white" fill-opacity="0.4"/>
  
  <rect x="15" y="7" width="8" height="12" rx="1.5" transform="rotate(10 15 7)" fill="#DC2626" stroke="#1A1C24" stroke-width="0.5"/>
  <rect x="18" y="9" width="3" height="1" rx="0.5" transform="rotate(10 18 9)" fill="white" fill-opacity="0.4"/>
</svg>